<svg xmlns="http://www.w3.org/2000/svg" xmlns:xlink="http://www.w3.org/1999/xlink" width="523" zoomAndPan="magnify" viewBox="0 0 392.25 72" height="96" preserveAspectRatio="xMidYMid meet" version="1.0"><defs><g/><clipPath id="b0eebe8565"><path d="M 0 0.0703125 L 391.5 0.0703125 L 391.5 71.929688 L 0 71.929688 Z M 0 0.0703125 " clip-rule="nonzero"/></clipPath></defs><g fill="#cb6ce6" fill-opacity="1"><g transform="translate(32.192868, 57.891295)"><g><path d="M 24.90625 -22.828125 C 26.144531 -26.402344 20.351562 -28.492188 14.636719 -28.214844 C 5.910156 -27.789062 -0.0390625 -20.472656 0.328125 -12.890625 C 0.738281 -4.503906 7.621094 0.394531 15.203125 0.0273438 C 19.738281 -0.195312 24.238281 -2.703125 26.066406 -5.238281 C 27.460938 -7.175781 25.882812 -8.246094 25.621094 -8.082031 C 23.769531 -6.882812 22.074219 -6.417969 20.664062 -6.351562 C 14.605469 -6.058594 9.328125 -11.644531 8.953125 -19.382812 C 8.773438 -23.078125 9.691406 -25.414062 12.398438 -25.546875 C 14.683594 -25.65625 16.597656 -23.992188 17.78125 -21.679688 C 18.664062 -19.96875 19.144531 -17.929688 19.125 -15.980469 C 19.101562 -13.378906 21.785156 -13.929688 21.886719 -14.203125 Z M 24.90625 -22.828125 "/></g></g></g><g fill="#cb6ce6" fill-opacity="1"><g transform="translate(59.288138, 56.576332)"><g><path d="M 15.625 0.00390625 C 25.074219 -0.453125 31.976562 -6.976562 31.570312 -15.398438 C 31.183594 -23.324219 24.734375 -28.703125 15.855469 -28.273438 C 6.632812 -27.824219 -0.0820312 -21.386719 0.328125 -12.890625 C 0.714844 -4.925781 6.972656 0.425781 15.625 0.00390625 Z M 19.347656 -2.734375 C 14.320312 -2.492188 9.464844 -15.128906 9.210938 -20.386719 C 9.054688 -23.550781 9.921875 -25.425781 12.398438 -25.546875 C 17.734375 -25.804688 22.203125 -13.226562 22.457031 -7.964844 C 22.628906 -4.421875 21.367188 -2.832031 19.347656 -2.734375 Z M 19.347656 -2.734375 "/></g></g></g><g fill="#cb6ce6" fill-opacity="1"><g transform="translate(92.480797, 54.965456)"><g><path d="M 28.195312 -28.222656 C 27.511719 -28.1875 26.179688 -28.046875 25.382812 -27.972656 L 23.171875 -27.863281 C 22.371094 -27.863281 21.03125 -27.875 20.347656 -27.839844 C 20.230469 -27.835938 19.699219 -26.242188 21.320312 -25.863281 C 22.207031 -25.679688 23.332031 -25.390625 23.550781 -21.617188 L 23.839844 -15.671875 C 23.847656 -15.480469 23.777344 -15.363281 23.625 -15.355469 C 23.550781 -15.351562 23.394531 -15.421875 23.273438 -15.53125 L 12.917969 -26.601562 C 12.476562 -27.078125 11.890625 -27.316406 10.824219 -27.265625 L 2.4375 -26.894531 C 1.75 -26.902344 0.527344 -26.917969 -0.0820312 -26.886719 C -0.195312 -26.882812 -0.695312 -25.332031 0.777344 -24.945312 C 1.355469 -24.78125 2.128906 -24.589844 3.003906 -23.105469 L 3.738281 -6.40625 C 3.882812 -2.632812 2.792969 -2.238281 1.929688 -1.964844 C 0.351562 -1.429688 1.074219 0.101562 1.1875 0.09375 C 1.875 0.0625 3.203125 -0.078125 3.964844 -0.152344 L 6.175781 -0.261719 C 6.976562 -0.261719 8.316406 -0.25 9 -0.285156 C 9.117188 -0.289062 9.648438 -1.882812 8.027344 -2.261719 C 7.140625 -2.449219 6.015625 -2.738281 5.835938 -6.507812 L 5.179688 -20.765625 C 5.167969 -20.992188 5.28125 -21.074219 5.394531 -21.082031 C 5.46875 -21.085938 5.585938 -21.050781 5.707031 -20.941406 L 24.371094 -1.601562 C 24.773438 -1.164062 25.234375 -1.109375 25.613281 -1.167969 C 26.183594 -1.195312 26.550781 -1.519531 26.550781 -1.519531 L 25.648438 -21.71875 C 25.464844 -25.492188 26.554688 -25.890625 27.417969 -26.160156 C 28.996094 -26.695312 28.3125 -28.226562 28.195312 -28.222656 Z M 28.195312 -28.222656 "/></g></g></g><g fill="#cb6ce6" fill-opacity="1"><g transform="translate(122.662873, 53.500687)"><g><path d="M 4 -0.195312 L 13.148438 -0.636719 C 14.175781 -0.6875 16.121094 -0.746094 16.773438 -0.699219 C 17.085938 -1.363281 17.121094 -2.207031 16.074219 -2.5 C 13.636719 -3.183594 12.9375 -3.417969 12.738281 -7.492188 L 12.542969 -11.535156 C 12.519531 -12.027344 12.632812 -12.796875 13.320312 -12.832031 C 13.625 -12.847656 13.96875 -12.863281 14.65625 -12.820312 C 16.152344 -12.742188 16.433594 -12.449219 17.230469 -10.15625 C 17.628906 -9.03125 19.539062 -9.085938 19.898438 -9.523438 C 19.394531 -12.019531 19.160156 -16.09375 19.449219 -18.746094 C 18.667969 -19.128906 17.183594 -18.980469 16.867188 -17.664062 C 16.398438 -15.539062 16.21875 -15.304688 14.550781 -15.03125 C 13.867188 -14.921875 13.523438 -14.90625 13.21875 -14.890625 C 12.535156 -14.855469 12.34375 -15.613281 12.320312 -16.144531 L 11.945312 -23.804688 C 11.882812 -25.101562 12.21875 -25.269531 13.019531 -25.308594 C 14.886719 -25.398438 17.519531 -25.488281 18.632812 -24.589844 C 19.785156 -23.652344 20.355469 -22.914062 21.03125 -20.003906 C 21.613281 -17.476562 24.585938 -18.382812 24.585938 -18.382812 C 23.835938 -22.015625 23.65625 -24.144531 23.777344 -27.207031 C 23.8125 -28.046875 23.292969 -28.519531 22.605469 -28.484375 C 21.691406 -28.441406 19.019531 -27.664062 14.941406 -27.464844 L 2.707031 -26.871094 C 1.90625 -26.832031 0.53125 -26.804688 -0.15625 -26.847656 C -0.398438 -26.339844 -0.460938 -25.226562 0.777344 -24.90625 C 2.132812 -24.550781 2.882812 -24.050781 3.046875 -20.621094 L 3.707031 -7.054688 C 3.886719 -3.359375 3.359375 -2.417969 2.003906 -2.007812 C 0.460938 -1.550781 1 0.105469 1.261719 0.0546875 C 1.945312 -0.0546875 3.203125 -0.15625 4 -0.195312 Z M 4 -0.195312 "/></g></g></g><g fill="#cb6ce6" fill-opacity="1"><g transform="translate(148.843533, 52.230111)"><g><path d="M 3.699219 -6.445312 C 3.882812 -2.671875 2.792969 -2.273438 1.925781 -2.003906 C 0.347656 -1.46875 1.035156 0.0625 1.148438 0.0585938 C 1.835938 0.0273438 3.164062 -0.117188 3.964844 -0.191406 L 13.109375 -0.636719 C 13.910156 -0.636719 15.25 -0.625 15.933594 -0.660156 C 16.050781 -0.664062 16.582031 -2.257812 14.960938 -2.636719 C 14.074219 -2.820312 12.953125 -3.113281 12.769531 -6.882812 L 12.082031 -21.0625 C 11.898438 -24.835938 12.984375 -25.230469 13.851562 -25.5 C 15.429688 -26.035156 14.742188 -27.570312 14.628906 -27.5625 C 13.945312 -27.53125 12.613281 -27.390625 11.816406 -27.3125 L 2.667969 -26.867188 C 1.867188 -26.867188 0.527344 -26.878906 -0.15625 -26.847656 C -0.269531 -26.839844 -0.804688 -25.25 0.816406 -24.871094 C 1.707031 -24.683594 2.828125 -24.394531 3.011719 -20.621094 Z M 3.699219 -6.445312 "/></g></g></g><g fill="#cb6ce6" fill-opacity="1"><g transform="translate(165.916221, 51.401555)"><g><path d="M 15.757812 -0.382812 C 24.292969 -0.796875 30 -6.804688 29.574219 -15.570312 C 29.171875 -23.839844 22.847656 -28.230469 15.035156 -27.851562 C 11.644531 -27.6875 4.535156 -26.960938 2.667969 -26.867188 L -0.15625 -26.847656 C -0.269531 -26.839844 -0.804688 -25.25 0.816406 -24.871094 C 1.707031 -24.683594 2.828125 -24.394531 3.011719 -20.621094 L 3.699219 -6.445312 C 3.882812 -2.671875 2.792969 -2.273438 1.925781 -2.003906 C 0.347656 -1.46875 1.035156 0.0625 1.148438 0.0585938 L 4 -0.195312 C 6.707031 -0.324219 11.261719 -0.164062 15.757812 -0.382812 Z M 14.628906 -2.390625 C 13.449219 -2.332031 12.972656 -2.652344 12.914062 -3.875 L 11.890625 -24.183594 C 11.847656 -25.0625 12.050781 -25.605469 13.421875 -25.671875 C 17.195312 -25.855469 19.734375 -19.941406 20.03125 -13.082031 C 20.25 -6.980469 18.363281 -2.570312 14.628906 -2.390625 Z M 14.628906 -2.390625 "/></g></g></g><g fill="#cb6ce6" fill-opacity="1"><g transform="translate(197.127225, 49.886852)"><g><path d="M 16.195312 -0.785156 C 21.035156 -1.019531 22.898438 -0.460938 23.886719 -0.511719 C 24.613281 -0.507812 25.082031 -1.066406 24.964844 -1.898438 C 24.558594 -4.78125 24.523438 -7.074219 24.917969 -10.757812 C 24.949219 -10.914062 21.570312 -11.246094 21.1875 -8.933594 C 20.652344 -5.777344 20.289062 -4.613281 19.371094 -3.84375 C 18.492188 -3.113281 17.011719 -2.886719 14.382812 -2.761719 C 13.199219 -2.703125 12.933594 -2.691406 12.851562 -4.40625 L 12.464844 -12.371094 C 12.441406 -12.867188 12.554688 -13.636719 13.242188 -13.667969 C 13.546875 -13.683594 13.890625 -13.699219 14.691406 -13.664062 C 16.335938 -13.628906 16.542969 -13.332031 17.386719 -10.929688 C 17.785156 -9.800781 19.636719 -10.195312 19.636719 -10.195312 C 19.132812 -12.695312 18.699219 -16.875 18.992188 -19.5625 C 18.992188 -19.5625 17.09375 -20.121094 16.816406 -18.695312 C 16.359375 -16.339844 16.21875 -16.105469 14.507812 -15.871094 C 13.789062 -15.757812 13.445312 -15.742188 13.140625 -15.726562 C 12.457031 -15.691406 12.265625 -16.449219 12.242188 -16.945312 L 11.917969 -23.652344 C 11.875 -24.488281 12.105469 -25.265625 13.285156 -25.320312 C 15.839844 -25.445312 17.292969 -25.402344 18.246094 -24.683594 C 19.195312 -23.964844 19.648438 -22.574219 20.226562 -20.042969 C 20.71875 -17.8125 23.785156 -18.34375 23.785156 -18.34375 C 23.085938 -20.984375 22.789062 -23.949219 22.96875 -27.320312 C 23.003906 -28.160156 22.605469 -28.484375 21.921875 -28.453125 C 20.777344 -28.433594 18.980469 -27.660156 14.902344 -27.460938 L 2.667969 -26.867188 C 1.867188 -26.867188 0.527344 -26.878906 -0.15625 -26.847656 C -0.269531 -26.839844 -0.804688 -25.25 0.816406 -24.871094 C 1.707031 -24.683594 2.828125 -24.394531 3.011719 -20.621094 L 3.699219 -6.445312 C 3.882812 -2.671875 2.792969 -2.273438 1.925781 -2.003906 C 0.347656 -1.46875 1.035156 0.0625 1.148438 0.0585938 C 1.835938 0.0273438 3.164062 -0.117188 3.964844 -0.191406 Z M 16.195312 -0.785156 "/></g></g></g><g fill="#cb6ce6" fill-opacity="1"><g transform="translate(223.269779, 48.618125)"><g><path d="M 28.195312 -28.222656 C 27.511719 -28.1875 26.179688 -28.046875 25.382812 -27.972656 L 23.171875 -27.863281 C 22.371094 -27.863281 21.03125 -27.875 20.347656 -27.839844 C 20.230469 -27.835938 19.699219 -26.242188 21.320312 -25.863281 C 22.207031 -25.679688 23.332031 -25.390625 23.550781 -21.617188 L 23.839844 -15.671875 C 23.847656 -15.480469 23.777344 -15.363281 23.625 -15.355469 C 23.550781 -15.351562 23.394531 -15.421875 23.273438 -15.53125 L 12.917969 -26.601562 C 12.476562 -27.078125 11.890625 -27.316406 10.824219 -27.265625 L 2.4375 -26.894531 C 1.75 -26.902344 0.527344 -26.917969 -0.0820312 -26.886719 C -0.195312 -26.882812 -0.695312 -25.332031 0.777344 -24.945312 C 1.355469 -24.78125 2.128906 -24.589844 3.003906 -23.105469 L 3.738281 -6.40625 C 3.882812 -2.632812 2.792969 -2.238281 1.929688 -1.964844 C 0.351562 -1.429688 1.074219 0.101562 1.1875 0.09375 C 1.875 0.0625 3.203125 -0.078125 3.964844 -0.152344 L 6.175781 -0.261719 C 6.976562 -0.261719 8.316406 -0.25 9 -0.285156 C 9.117188 -0.289062 9.648438 -1.882812 8.027344 -2.261719 C 7.140625 -2.449219 6.015625 -2.738281 5.835938 -6.507812 L 5.179688 -20.765625 C 5.167969 -20.992188 5.28125 -21.074219 5.394531 -21.082031 C 5.46875 -21.085938 5.585938 -21.050781 5.707031 -20.941406 L 24.371094 -1.601562 C 24.773438 -1.164062 25.234375 -1.109375 25.613281 -1.167969 C 26.183594 -1.195312 26.550781 -1.519531 26.550781 -1.519531 L 25.648438 -21.71875 C 25.464844 -25.492188 26.554688 -25.890625 27.417969 -26.160156 C 28.996094 -26.695312 28.3125 -28.226562 28.195312 -28.222656 Z M 28.195312 -28.222656 "/></g></g></g><g fill="#cb6ce6" fill-opacity="1"><g transform="translate(253.451844, 47.153357)"><g><path d="M 24.90625 -22.828125 C 26.144531 -26.402344 20.351562 -28.492188 14.636719 -28.214844 C 5.910156 -27.789062 -0.0390625 -20.472656 0.328125 -12.890625 C 0.738281 -4.503906 7.621094 0.394531 15.203125 0.0273438 C 19.738281 -0.195312 24.238281 -2.703125 26.066406 -5.238281 C 27.460938 -7.175781 25.882812 -8.246094 25.621094 -8.082031 C 23.769531 -6.882812 22.074219 -6.417969 20.664062 -6.351562 C 14.605469 -6.058594 9.328125 -11.644531 8.953125 -19.382812 C 8.773438 -23.078125 9.691406 -25.414062 12.398438 -25.546875 C 14.683594 -25.65625 16.597656 -23.992188 17.78125 -21.679688 C 18.664062 -19.96875 19.144531 -17.929688 19.125 -15.980469 C 19.101562 -13.378906 21.785156 -13.929688 21.886719 -14.203125 Z M 24.90625 -22.828125 "/></g></g></g><g fill="#cb6ce6" fill-opacity="1"><g transform="translate(280.547114, 45.838394)"><g><path d="M 3.699219 -6.445312 C 3.882812 -2.671875 2.792969 -2.273438 1.925781 -2.003906 C 0.347656 -1.46875 1.035156 0.0625 1.148438 0.0585938 C 1.835938 0.0273438 3.164062 -0.117188 3.964844 -0.191406 L 13.109375 -0.636719 C 13.910156 -0.636719 15.25 -0.625 15.933594 -0.660156 C 16.050781 -0.664062 16.582031 -2.257812 14.960938 -2.636719 C 14.074219 -2.820312 12.953125 -3.113281 12.769531 -6.882812 L 12.082031 -21.0625 C 11.898438 -24.835938 12.984375 -25.230469 13.851562 -25.5 C 15.429688 -26.035156 14.742188 -27.570312 14.628906 -27.5625 C 13.945312 -27.53125 12.613281 -27.390625 11.816406 -27.3125 L 2.667969 -26.867188 C 1.867188 -26.867188 0.527344 -26.878906 -0.15625 -26.847656 C -0.269531 -26.839844 -0.804688 -25.25 0.816406 -24.871094 C 1.707031 -24.683594 2.828125 -24.394531 3.011719 -20.621094 Z M 3.699219 -6.445312 "/></g></g></g><g fill="#cb6ce6" fill-opacity="1"><g transform="translate(297.619802, 45.009838)"><g><path d="M 28.832031 -3.308594 C 28.328125 -3.515625 27.359375 -3.773438 25.777344 -7.210938 L 18.132812 -23.875 C 16.59375 -27.238281 16.007812 -27.515625 11.738281 -27.308594 L 6.214844 -27.042969 C 5.945312 -27.027344 5.515625 -25.671875 6.902344 -25.394531 C 7.519531 -25.269531 7.792969 -25.207031 8.175781 -24.386719 L 8.433594 -23.824219 C 8.699219 -23.035156 8.867188 -21.976562 8.597656 -21.199219 L 3.484375 -6.128906 C 2.28125 -2.554688 1.34375 -2.203125 0.785156 -1.949219 C -0.222656 -1.402344 0.308594 0.0976562 0.347656 0.0976562 C 0.804688 0.0742188 1.679688 -0.0429688 2.210938 -0.105469 L 4.457031 -0.214844 C 5.566406 -0.230469 7.4375 -0.246094 8.390625 -0.292969 C 8.582031 -0.300781 9.304688 -1.902344 7.070312 -2.253906 C 5.878906 -2.425781 4.570312 -2.667969 5.632812 -5.925781 C 5.777344 -6.125 5.964844 -6.171875 6.230469 -6.183594 C 9.699219 -6.351562 12.214844 -6.511719 15.605469 -6.679688 C 15.832031 -6.6875 16.136719 -6.703125 16.382812 -6.371094 C 17.71875 -3.265625 16.664062 -2.949219 15.648438 -2.667969 C 13.761719 -2.121094 14.5625 -0.59375 14.714844 -0.597656 C 15.515625 -0.636719 17.113281 -0.792969 18.101562 -0.878906 L 27.707031 -1.34375 C 28.164062 -1.328125 28.96875 -1.292969 29.386719 -1.3125 C 29.464844 -1.316406 29.808594 -2.859375 28.832031 -3.308594 Z M 14.738281 -8.777344 C 11.847656 -8.558594 9.867188 -8.425781 7.007812 -8.324219 C 6.738281 -8.3125 6.570312 -8.644531 6.632812 -8.917969 L 6.671875 -8.957031 C 6.671875 -8.957031 6.667969 -8.996094 6.667969 -8.996094 L 10.3125 -19.714844 L 15.015625 -9.363281 C 15.144531 -9.101562 14.890625 -8.78125 14.738281 -8.777344 Z M 14.738281 -8.777344 "/></g></g></g><g fill="#cb6ce6" fill-opacity="1"><g transform="translate(327.344556, 43.567263)"><g><path d="M 16.195312 -0.785156 C 20.273438 -0.984375 22.136719 -0.425781 23.277344 -0.480469 C 24.003906 -0.515625 24.328125 -0.875 24.210938 -1.710938 C 23.796875 -4.746094 23.820312 -9.023438 24.210938 -12.710938 C 24.242188 -12.867188 20.691406 -13.648438 20.289062 -10.152344 C 19.960938 -7.460938 19.503906 -5.835938 18.757812 -4.691406 C 17.796875 -3.230469 16.25 -2.851562 13.847656 -2.734375 C 13.238281 -2.707031 12.917969 -3.035156 12.882812 -3.71875 L 12.042969 -21.058594 C 11.859375 -24.832031 12.949219 -25.230469 13.8125 -25.5 C 15.390625 -26.035156 14.707031 -27.566406 14.589844 -27.5625 C 13.90625 -27.527344 12.574219 -27.386719 11.777344 -27.3125 L 2.667969 -26.867188 C 1.867188 -26.867188 0.527344 -26.878906 -0.15625 -26.847656 C -0.269531 -26.839844 -0.804688 -25.25 0.816406 -24.871094 C 1.707031 -24.683594 2.828125 -24.394531 3.011719 -20.621094 L 3.699219 -6.445312 C 3.882812 -2.671875 2.792969 -2.273438 1.925781 -2.003906 C 0.347656 -1.46875 1.035156 0.0625 1.148438 0.0585938 C 1.835938 0.0273438 3.164062 -0.117188 3.964844 -0.191406 Z M 16.195312 -0.785156 "/></g></g></g><g clip-path="url(#b0eebe8565)"><path stroke-linecap="butt" transform="matrix(8.223413, -0.422406, 0.422406, 8.223413, 12.164317, 25.590795)" fill="none" stroke-linejoin="miter" d="M -0.0000249211 -0.000116957 L 45.091783 -0.0000955234 " stroke="#cb6ce6" stroke-width="1" stroke-opacity="1" stroke-miterlimit="4"/><path stroke-linecap="butt" transform="matrix(8.222896, -0.422379, 0.422406, 8.223413, 14.144048, 64.500846)" fill="none" stroke-linejoin="miter" d="M 0.0000638969 -0.0000995932 L 45.094236 -0.000102821 " stroke="#cb6ce6" stroke-width="1" stroke-opacity="1" stroke-miterlimit="4"/></g></svg>